<svg xmlns="http://www.w3.org/2000/svg" width="1280" height="800" viewBox="0 0 1280 800" font-family="Inter,'Segoe UI','Helvetica Neue',Arial,sans-serif" role="img" aria-label="Cài đặt, tab Bảo mật" xmlns:c2pa="http://c2pa.org/manifest"><metadata><c2pa:manifest>AAAWgmp1bWIAAAAeanVtZGMycGEAEQAQgAAAqgA4m3EDYzJwYQAAABZcanVtYgAAAEdqdW1kYzJtYQARABCAAACqADibcQN1cm46YzJwYToyNzA3ZTc5Ni1jOWViLTQ2NjMtOTM1OC03OGI3OTFiYTVjOTgAAAADl2p1bWIAAAApanVtZGMyYXMAEQAQgAAAqgA4m3EDYzJwYS5hc3NlcnRpb25zAAAAALxqdW1iAAAARGp1bWRjYm9yABEAEIAAAKoAOJtxE2MycGEuaW5ncmVkaWVudC52MwAAAAAYYzJzaNRm72hU16kL7Fucni7S3D8AAABwY2JvcqNpZGM6Zm9ybWF0bWltYWdlL3N2Zyt4bWxqaW5zdGFuY2VJRHgseG1wOmlpZDpjZTIyMGMxZi05NDAwLTRmM2MtYTIzNS01MTdiMTY2OWZiYjhscmVsYXRpb25zaGlwaHBhcmVudE9mAAAB4mp1bWIAAABBanVtZGNib3IAEQAQgAAAqgA4m3ETYzJwYS5hY3Rpb25zLnYyAAAAABhjMnNotwGU3tfGwOtpTZbLZHN7yQAAAZljYm9yomdhY3Rpb25zgqJmYWN0aW9ua2MycGEub3BlbmVkanBhcmFtZXRlcnOha2luZ3JlZGllbnRzgaJjdXJseC1zZWxmI2p1bWJmPWMycGEuYXNzZXJ0aW9ucy9jMnBhLmluZ3JlZGllbnQudjNkaGFzaFgg1ICxDxrXDLJuC6DjGmRN9GSPLnMDlx+OTz0y66NoBkykZmFjdGlvbngdY29tLmFudGhyb3BpYy5jbGF1ZGUucHJvdmlkZWRqcGFyYW1ldGVyc6F4H2NvbS5hbnRocm9waWMub3JpZ2luLWNvbmZpZGVuY2VndW5rbm93bmtkZXNjcmlwdGlvbnhmQ2xhdWRlIHByb3ZpZGVkIHRoaXMgZmlsZSBhdCB0aGUgcmVxdWVzdCBvZiBhIHVzZXIgYW5kIG1heSBoYXZlIGNyZWF0ZWQgb3IgbW9kaWZpZWQgdGhlIGZpbGUgY29udGVudHMubXNvZnR3YXJlQWdlbnShZG5hbWVmQ2xhdWRlcmFsbEFjdGlvbnNJbmNsdWRlZPUAAADIanVtYgAAAEBqdW1kY2JvcgARABCAAACqADibcRNjMnBhLmhhc2guZGF0YQAAAAAYYzJzaHe74PyU8k536trCYDzjTAMAAACAY2JvcqVjYWxnZnNoYTI1NmNwYWRMAAAAAAAAAAAAAAAAZGhhc2hYILDpYHrBNLA4uD0Zc0pJYJtzK6RVayJZBdCBptbRG3esZG5hbWVuanVtYmYgbWFuaWZlc3RqZXhjbHVzaW9uc4GiZXN0YXJ0GQEOZmxlbmd0aBkeBAAAAj5qdW1iAAAAJ2p1bWRjMmNsABEAEIAAAKoAOJtxA2MycGEuY2xhaW0udjIAAAACD2Nib3KlY2FsZ2ZzaGEyNTZpc2lnbmF0dXJleE1zZWxmI2p1bWJmPS9jMnBhL3VybjpjMnBhOjI3MDdlNzk2LWM5ZWItNDY2My05MzU4LTc4Yjc5MWJhNWM5OC9jMnBhLnNpZ25hdHVyZWppbnN0YW5jZUlEeCx4bXA6aWlkOjhmOWFiMGQ5LWJkYjMtNDI1MS1iN2NhLTNkMzk1Y2M1NzI3M3JjcmVhdGVkX2Fzc2VydGlvbnODomN1cmx4LXNlbGYjanVtYmY9YzJwYS5hc3NlcnRpb25zL2MycGEuaW5ncmVkaWVudC52M2RoYXNoWCDUgLEPGtcMsm4LoOMaZE30ZI8ucwOXH45PPTLro2gGTKJjdXJseCpzZWxmI2p1bWJmPWMycGEuYXNzZXJ0aW9ucy9jMnBhLmFjdGlvbnMudjJkaGFzaFggGohtt4ocAuNNJXspM/4BBuTwdVeI52C8F2pJIT77klKiY3VybHgpc2VsZiNqdW1iZj1jMnBhLmFzc2VydGlvbnMvYzJwYS5oYXNoLmRhdGFkaGFzaFgg9FhT2x3mHN+aLtV8eMmGSWZMqpsABAzkHTig0eXxAMx0Y2xhaW1fZ2VuZXJhdG9yX2luZm+jZG5hbWVvQW50aHJvcGljIEZpbGVzZ3ZlcnNpb25lMS4wLjBrc3BlY1ZlcnNpb25lMi40LjAAABA4anVtYgAAAChqdW1kYzJjcwARABCAAACqADibcQNjMnBhLnNpZ25hdHVyZQAAABAIY2JvctKEWQISogEmGCFZAgowggIGMIIBjaADAgECAhRA5aAK7sI50L64g/oGQgU9Z1UTADAKBggqhkjOPQQDAzBJMRcwFQYDVQQKEw5BbnRocm9waWMsIFBCQzEuMCwGA1UEAxMlQW50aHJvcGljIENvbnRlbnQgQ3JlZGVudGlhbHMgUm9vdCBDQTAeFw0yNjA4MDcxODQzNTZaFw0yODA4MDYxOTQzNTZaMEQxFzAVBgNVBAoTDkFudGhyb3BpYywgUEJDMSkwJwYDVQQDEyBBbnRocm9waWMgQ2xhdWRlIENvbnRlbnQgU2lnbmluZzBZMBMGByqGSM49AgEGCCqGSM49AwEHA0IABJh6CmvLUBgFFNU0vUKlOVtE6djd17L5SuwX0LemFisBM3dkd/3cyjxFA3Qo5S46fX0/ihY0VZ7mfb9KF703t5OjWDBWMA4GA1UdDwEB/wQEAwIHgDAVBgNVHSUEDjAMBgorBgEEAYPoXgIBMAwGA1UdEwEB/wQCMAAwHwYDVR0jBBgwFoAUzlHiBIFOZFsj+OPEz5o+nMHXXMIwCgYIKoZIzj0EAwMDZwAwZAIwMXMdFJ4BetLLVY7ORuE9noqbbAZOZn/aArXyTwFAZfKrPzxF2vPoJNf1+UCdg1XGAjBwX1zd9WGqYkqmL5SFqw1QySjr1zJfpJM9+1rdDwSPLMOPOjKuiXjoU/pUUeG9RwmhY3BhZFkNngAAAAAAAAAAAAAAAAAAAAAAAAAAAAAAAAAAAAAAAAAAAAAAAAAAAAAAAAAAAAAAAAAAAAAAAAAAAAAAAAAAAAAAAAAAAAAAAAAAAAAAAAAAAAAAAAAAAAAAAAAAAAAAAAAAAAAAAAAAAAAAAAAAAAAAAAAAAAAAAAAAAAAAAAAAAAAAAAAAAAAAAAAAAAAAAAAAAAAAAAAAAAAAAAAAAAAAAAAAAAAAAAAAAAAAAAAAAAAAAAAAAAAAAAAAAAAAAAAAAAAAAAAAAAAAAAAAAAAAAAAAAAAAAAAAAAAAAAAAAAAAAAAAAAAAAAAAAAAAAAAAAAAAAAAAAAAAAAAAAAAAAAAAAAAAAAAAAAAAAAAAAAAAAAAAAAAAAAAAAAAAAAAAAAAAAAAAAAAAAAAAAAAAAAAAAAAAAAAAAAAAAAAAAAAAAAAAAAAAAAAAAAAAAAAAAAAAAAAAAAAAAAAAAAAAAAAAAAAAAAAAAAAAAAAAAAAAAAAAAAAAAAAAAAAAAAAAAAAAAAAAAAAAAAAAAAAAAAAAAAAAAAAAAAAAAAAAAAAAAAAAAAAAAAAAAAAAAAAAAAAAAAAAAAAAAAAAAAAAAAAAAAAAAAAAAAAAAAAAAAAAAAAAAAAAAAAAAAAAAAAAAAAAAAAAAAAAAAAAAAAAAAAAAAAAAAAAAAAAAAAAAAAAAAAAAAAAAAAAAAAAAAAAAAAAAAAAAAAAAAAAAAAAAAAAAAAAAAAAAAAAAAAAAAAAAAAAAAAAAAAAAAAAAAAAAAAAAAAAAAAAAAAAAAAAAAAAAAAAAAAAAAAAAAAAAAAAAAAAAAAAAAAAAAAAAAAAAAAAAAAAAAAAAAAAAAAAAAAAAAAAAAAAAAAAAAAAAAAAAAAAAAAAAAAAAAAAAAAAAAAAAAAAAAAAAAAAAAAAAAAAAAAAAAAAAAAAAAAAAAAAAAAAAAAAAAAAAAAAAAAAAAAAAAAAAAAAAAAAAAAAAAAAAAAAAAAAAAAAAAAAAAAAAAAAAAAAAAAAAAAAAAAAAAAAAAAAAAAAAAAAAAAAAAAAAAAAAAAAAAAAAAAAAAAAAAAAAAAAAAAAAAAAAAAAAAAAAAAAAAAAAAAAAAAAAAAAAAAAAAAAAAAAAAAAAAAAAAAAAAAAAAAAAAAAAAAAAAAAAAAAAAAAAAAAAAAAAAAAAAAAAAAAAAAAAAAAAAAAAAAAAAAAAAAAAAAAAAAAAAAAAAAAAAAAAAAAAAAAAAAAAAAAAAAAAAAAAAAAAAAAAAAAAAAAAAAAAAAAAAAAAAAAAAAAAAAAAAAAAAAAAAAAAAAAAAAAAAAAAAAAAAAAAAAAAAAAAAAAAAAAAAAAAAAAAAAAAAAAAAAAAAAAAAAAAAAAAAAAAAAAAAAAAAAAAAAAAAAAAAAAAAAAAAAAAAAAAAAAAAAAAAAAAAAAAAAAAAAAAAAAAAAAAAAAAAAAAAAAAAAAAAAAAAAAAAAAAAAAAAAAAAAAAAAAAAAAAAAAAAAAAAAAAAAAAAAAAAAAAAAAAAAAAAAAAAAAAAAAAAAAAAAAAAAAAAAAAAAAAAAAAAAAAAAAAAAAAAAAAAAAAAAAAAAAAAAAAAAAAAAAAAAAAAAAAAAAAAAAAAAAAAAAAAAAAAAAAAAAAAAAAAAAAAAAAAAAAAAAAAAAAAAAAAAAAAAAAAAAAAAAAAAAAAAAAAAAAAAAAAAAAAAAAAAAAAAAAAAAAAAAAAAAAAAAAAAAAAAAAAAAAAAAAAAAAAAAAAAAAAAAAAAAAAAAAAAAAAAAAAAAAAAAAAAAAAAAAAAAAAAAAAAAAAAAAAAAAAAAAAAAAAAAAAAAAAAAAAAAAAAAAAAAAAAAAAAAAAAAAAAAAAAAAAAAAAAAAAAAAAAAAAAAAAAAAAAAAAAAAAAAAAAAAAAAAAAAAAAAAAAAAAAAAAAAAAAAAAAAAAAAAAAAAAAAAAAAAAAAAAAAAAAAAAAAAAAAAAAAAAAAAAAAAAAAAAAAAAAAAAAAAAAAAAAAAAAAAAAAAAAAAAAAAAAAAAAAAAAAAAAAAAAAAAAAAAAAAAAAAAAAAAAAAAAAAAAAAAAAAAAAAAAAAAAAAAAAAAAAAAAAAAAAAAAAAAAAAAAAAAAAAAAAAAAAAAAAAAAAAAAAAAAAAAAAAAAAAAAAAAAAAAAAAAAAAAAAAAAAAAAAAAAAAAAAAAAAAAAAAAAAAAAAAAAAAAAAAAAAAAAAAAAAAAAAAAAAAAAAAAAAAAAAAAAAAAAAAAAAAAAAAAAAAAAAAAAAAAAAAAAAAAAAAAAAAAAAAAAAAAAAAAAAAAAAAAAAAAAAAAAAAAAAAAAAAAAAAAAAAAAAAAAAAAAAAAAAAAAAAAAAAAAAAAAAAAAAAAAAAAAAAAAAAAAAAAAAAAAAAAAAAAAAAAAAAAAAAAAAAAAAAAAAAAAAAAAAAAAAAAAAAAAAAAAAAAAAAAAAAAAAAAAAAAAAAAAAAAAAAAAAAAAAAAAAAAAAAAAAAAAAAAAAAAAAAAAAAAAAAAAAAAAAAAAAAAAAAAAAAAAAAAAAAAAAAAAAAAAAAAAAAAAAAAAAAAAAAAAAAAAAAAAAAAAAAAAAAAAAAAAAAAAAAAAAAAAAAAAAAAAAAAAAAAAAAAAAAAAAAAAAAAAAAAAAAAAAAAAAAAAAAAAAAAAAAAAAAAAAAAAAAAAAAAAAAAAAAAAAAAAAAAAAAAAAAAAAAAAAAAAAAAAAAAAAAAAAAAAAAAAAAAAAAAAAAAAAAAAAAAAAAAAAAAAAAAAAAAAAAAAAAAAAAAAAAAAAAAAAAAAAAAAAAAAAAAAAAAAAAAAAAAAAAAAAAAAAAAAAAAAAAAAAAAAAAAAAAAAAAAAAAAAAAAAAAAAAAAAAAAAAAAAAAAAAAAAAAAAAAAAAAAAAAAAAAAAAAAAAAAAAAAAAAAAAAAAAAAAAAAAAAAAAAAAAAAAAAAAAAAAAAAAAAAAAAAAAAAAAAAAAAAAAAAAAAAAAAAAAAAAAAAAAAAAAAAAAAAAAAAAAAAAAAAAAAAAAAAAAAAAAAAAAAAAAAAAAAAAAAAAAAAAAAAAAAAAAAAAAAAAAAAAAAAAAAAAAAAAAAAAAAAAAAAAAAAAAAAAAAAAAAAAAAAAAAAAAAAAAAAAAAAAAAAAAAAAAAAAAAAAAAAAAAAAAAAAAAAAAAAAAAAAAAAAAAAAAAAAAAAAAAAAAAAAAAAAAAAAAAAAAAAAAAAAAAAAAAAAAAAAAAAAAAAAAAAAAAAAAAAAAAAAAAAAAAAAAAAAAAAAAAAAAAAAAAAAAAAAAAAAAAAAAAAAAAAAAAAAAAAAAAAAAAAAAAAAAAAAAAAAAAAAAAAAAAAAAAAAAAAAAAAAAAAAAAAAAAAAAAAAAAAAAAAAAAAAAAAAAAAAAAAAAAAAAAAAAAAAAAAAAAAAAAAAAAAAAAAAAAAAAAAAAAAAAAAAAAAAAAAAAAAAAAAAAAAAAAAAAAAAAAAAAAAAAAAAAAAAAAAAAAAAAAAAAAAAAAAAAAAAAAAAAAAAAAAAAAAAAAAAAAAAAAAAAAAAAAAAAAAAAAAAAAAAAAAAAAAAAAAAAAAAAAAAAAAAAAAAAAAAAAAAAAAAAAAAAAAAAAAAAAAAAAAAAAAAAAAAAAAAAAAAAAAAAAAAAAAAAAAAAAAAAAAAAAAAAAAAAAAAAAAAAAAAAAAAAAAAAAAAAAAAAAAAAAAAAAAAAAAAAAAAAAAAAAAAAAAAAAAAAAAAAAAAAAAAAAAAAAAAAAAAAAAAAAAAAAAAAAAAAAAAAAAAAAAAAAAAAAAAAAAAAAAAAAAAAAAAAAAAAAAAAAAAAAAAAAAAAAAAAAAAAAAAAAAAAAAAAAAAAAAAAAAAAAAAAAAAAAAAAAAAAAAAAAAAAAAAAAAAAAAAAAAAAAAAAAAAAAAAAAAAAAAAAAAAAAAAAAAAAAAAAAAAAAAAAAAAAAAAAAAAAAAAAAAAAAAAAAAAAAAAAAAAAAAAAAAAAAAAAAAAAAAAAAAAAAAAAAAAAAAAAAAAAAAAAAAAAAAAAAAAAAAAAAAAAAAAAAAAAAAAAAAAAAAAAAAAAAAAAAAAAAAAAAAAAAAAAAAAAAAAAAAAAAAAAAAAAAAAAAAAAAAAAAAAAAAAAAAAAAAAAAAAAAAAAAAAAAAAAAAAAAAAAAAAAAAAAAAAAAAAAAAAAAAAAAAAAAAAAAAAAAAAAAAAAAAAAAAAAAAAAAAAAAAAAAAAAAAAAAAAAAAAAAAAAAAAAAAAAAAAAAAAAAAAAAAAAAAAAAAAAAAAAAAAAAAAAAAAAAAAAAAAAAAAAAAAAAAAAAAAAAAAAAAAAAAAAAAAAAAAAAAAAAAAAAAAAAAAAAAAAAAAAAAAAAAAAAAAAAAAAAAAAAAAAAAAAAAAAAAAAAAAAAAAAAAAAAAAAAAAAAAAAAAAAAAAAAAAAAAAAAAAAAAAAAAAAAAAAAAAAAAAAAAAAAAAAAAAAAAAAAAAAAAAAAAAAAAAAAAAAAAAAAAAAAAAAAAAAAAAAAAAAAAAAAAAAAAAAAAAAAAAAAAAAAAAAAAAAAAAAAAAAAAAAAAAAAAAAAAAAAAAAAAAAAAAAAAAAAAAAAAAAAAAAAAAAAAAAAAAAAAAAAAAAAAAAAAAAAAAAAPZYQPDQaXIBDPnZcrQeyy4kDGE4ESemaHyTa+U/DuIMJq3WaOGbA7UiAWCwX6BF4y08tyoREIlZXkq9X2W/uf4BADY=</c2pa:manifest></metadata><title>Cài đặt, tab Bảo mật</title><defs><style>@import url("https://fonts.googleapis.com/css2?family=Inter:wght@400;500;600;700&amp;display=swap");</style><filter id="sh" x="-20%" y="-20%" width="140%" height="150%"><feDropShadow dx="0" dy="12" stdDeviation="16" flood-color="#0F1B2D" flood-opacity="0.25"/></filter></defs><rect width="1280" height="800" fill="#F3F5F8"/><rect x="0" y="0" width="248" height="800" rx="0" fill="#FFFFFF"/><line x1="248" y1="0" x2="248" y2="800" stroke="#CBD3DE" stroke-width="1"/><rect x="24" y="26" width="32" height="32" rx="8" fill="#2B3CE6"/><text x="40.0" y="48.08" font-size="17.6" font-weight="700" fill="#FFFFFF" text-anchor="middle" letter-spacing="-0.01em">S</text><rect x="30.4" y="51.6" width="19.2" height="3.2" rx="2" fill="#FFE66D"/><text x="66" y="47.760000000000005" font-size="17.92" fill="#0F1B2D" letter-spacing="-0.01em"><tspan font-weight="700">Sora</tspan><tspan font-weight="500" fill="#566377"> AI Chatbot</tspan></text><g transform="translate(32 110) scale(0.8333333333333334)" fill="none" stroke="#566377" stroke-width="2" stroke-linecap="round" stroke-linejoin="round"><path d="M21 15a2 2 0 0 1-2 2H7l-4 4V5a2 2 0 0 1 2-2h14a2 2 0 0 1 2 2z"/></g><text x="64" y="126" font-size="15" font-weight="500" fill="#0F1B2D" text-anchor="start">Trò chuyện</text><g transform="translate(32 158) scale(0.8333333333333334)" fill="none" stroke="#566377" stroke-width="2" stroke-linecap="round" stroke-linejoin="round"><path d="M15 2H6a2 2 0 0 0-2 2v16a2 2 0 0 0 2 2h12a2 2 0 0 0 2-2V7z"/><path d="M14 2v4a2 2 0 0 0 2 2h4"/><path d="M10 9H8"/><path d="M16 13H8"/><path d="M16 17H8"/></g><text x="64" y="174" font-size="15" font-weight="500" fill="#0F1B2D" text-anchor="start">Tài liệu</text><rect x="16" y="196" width="216" height="40" rx="8" fill="#E8EBFD"/><g transform="translate(32 206) scale(0.8333333333333334)" fill="none" stroke="#2B3CE6" stroke-width="2" stroke-linecap="round" stroke-linejoin="round"><path d="M19 21v-2a4 4 0 0 0-4-4H9a4 4 0 0 0-4 4v2"/><circle cx="12" cy="7" r="4"/></g><text x="64" y="222" font-size="15" font-weight="600" fill="#2B3CE6" text-anchor="start">Cài đặt</text><line x1="16" y1="708" x2="232" y2="708" stroke="#CBD3DE" stroke-width="1"/><rect x="24" y="730" width="40" height="40" rx="20" fill="#0F1B2D"/><text x="44" y="756" font-size="14" font-weight="600" fill="#FFFFFF" text-anchor="middle">AN</text><text x="76" y="748" font-size="14" font-weight="600" fill="#0F1B2D" text-anchor="start">An Nguyễn</text><text x="76" y="766" font-size="11" font-weight="400" fill="#566377" text-anchor="start">an.nguyen@example.com</text><g transform="translate(218 740) scale(0.6666666666666666)" fill="none" stroke="#566377" stroke-width="2" stroke-linecap="round" stroke-linejoin="round"><path d="M9 21H5a2 2 0 0 1-2-2V5a2 2 0 0 1 2-2h4"/><path d="m16 17 5-5-5-5"/><path d="M21 12H9"/></g><text x="320" y="86" font-size="26" font-weight="700" fill="#0F1B2D" text-anchor="start" letter-spacing="-0.02em">Cài đặt tài khoản</text><text x="320" y="142" font-size="15" font-weight="500" fill="#566377" text-anchor="start">Hồ sơ</text><rect x="397.25" y="130" width="73.75" height="19" rx="4" fill="#FFE66D"/><text x="401.25" y="142" font-size="15" font-weight="700" fill="#0F1B2D" text-anchor="start">Bảo mật</text><text x="499.0" y="142" font-size="15" font-weight="500" fill="#566377" text-anchor="start">Phiên đăng nhập</text><text x="662.75" y="142" font-size="15" font-weight="500" fill="#566377" text-anchor="start">Dữ liệu</text><line x1="320" y1="156" x2="1080" y2="156" stroke="#CBD3DE" stroke-width="1"/><text x="320" y="204" font-size="17" font-weight="700" fill="#0F1B2D" text-anchor="start" letter-spacing="-0.01em">Đổi mật khẩu</text><text x="320" y="228" font-size="13" font-weight="400" fill="#566377" text-anchor="start">Dùng cụm từ dài và không trùng với</text><text x="320" y="248.15" font-size="13" font-weight="400" fill="#566377" text-anchor="start">mật khẩu ở nơi khác.</text><text x="620" y="201" font-size="13" font-weight="600" fill="#0F1B2D" text-anchor="start">Mật khẩu hiện tại</text><rect x="620" y="210" width="460" height="44" rx="8" fill="#FFFFFF" stroke="#8A95A6" stroke-width="1"/><text x="634" y="238" font-size="13" font-weight="400" fill="#0F1B2D" text-anchor="start">••••••••••</text><g transform="translate(1046 221) scale(0.9166666666666666)" fill="none" stroke="#566377" stroke-width="1.8" stroke-linecap="round" stroke-linejoin="round"><path d="M2.06 12.35a1 1 0 0 1 0-.7 10.75 10.75 0 0 1 19.88 0 1 1 0 0 1 0 .7 10.75 10.75 0 0 1-19.88 0"/><circle cx="12" cy="12" r="3"/></g><text x="620" y="283" font-size="13" font-weight="600" fill="#0F1B2D" text-anchor="start">Mật khẩu mới</text><rect x="617" y="289" width="466" height="50" rx="11" fill="none" stroke="#2B3CE6" stroke-width="3" stroke-opacity="0.25"/><rect x="620" y="292" width="460" height="44" rx="8" fill="#FFFFFF" stroke="#2B3CE6" stroke-width="2"/><text x="634" y="320" font-size="13" font-weight="400" fill="#0F1B2D" text-anchor="start">••••••••••••••••</text><g transform="translate(1046 303) scale(0.9166666666666666)" fill="none" stroke="#566377" stroke-width="1.8" stroke-linecap="round" stroke-linejoin="round"><path d="M2.06 12.35a1 1 0 0 1 0-.7 10.75 10.75 0 0 1 19.88 0 1 1 0 0 1 0 .7 10.75 10.75 0 0 1-19.88 0"/><circle cx="12" cy="12" r="3"/></g><rect x="620.0" y="350" width="110.5" height="6" rx="3" fill="#17784F"/><rect x="736.5" y="350" width="110.5" height="6" rx="3" fill="#17784F"/><rect x="853.0" y="350" width="110.5" height="6" rx="3" fill="#17784F"/><rect x="969.5" y="350" width="110.5" height="6" rx="3" fill="#DDE3EA"/><text x="620" y="376" font-size="13" font-weight="400" fill="#566377" text-anchor="start">Độ mạnh mật khẩu:</text><text x="748.02" y="376" font-size="13" font-weight="600" fill="#17784F" text-anchor="start">Mạnh</text><rect x="620" y="400" width="20" height="20" rx="5" fill="#2B3CE6"/><g transform="translate(624 404) scale(0.5)" fill="none" stroke="#FFFFFF" stroke-width="3.2" stroke-linecap="round" stroke-linejoin="round"><path d="M20 6 9 17l-5-5"/></g><text x="652" y="415" font-size="13" font-weight="400" fill="#0F1B2D" text-anchor="start">Đăng xuất khỏi các thiết bị khác sau khi đổi mật khẩu</text><rect x="620" y="449" width="190" height="44" rx="8" fill="#2B3CE6"/><text x="715.0" y="476.0" font-size="14" font-weight="600" fill="#FFFFFF" text-anchor="middle">Cập nhật mật khẩu</text><line x1="320" y1="527" x2="1080" y2="527" stroke="#CBD3DE" stroke-width="1"/><text x="320" y="573" font-size="17" font-weight="700" fill="#0F1B2D" text-anchor="start" letter-spacing="-0.01em">Địa chỉ email</text><text x="320" y="597" font-size="13" font-weight="400" fill="#566377" text-anchor="start">Dùng để đăng nhập và nhận thông báo</text><text x="320" y="617.15" font-size="13" font-weight="400" fill="#566377" text-anchor="start">bảo mật.</text><text x="620" y="575" font-size="15" font-weight="500" fill="#0F1B2D" text-anchor="start">an.nguyen@example.com</text><rect x="807.25" y="559" width="97.24" height="22" rx="11" fill="#E4F4EC"/><text x="855.87" y="574.5" font-size="12" font-weight="600" fill="#17784F" text-anchor="middle">Đã xác thực</text></svg>